<svg width="1598" height="265" viewBox="0 0 1598 265" fill="none" xmlns="http://www.w3.org/2000/svg">
<circle cx="239" cy="81" r="42" fill="white" fill-opacity="0.7"/>
<circle cx="319" cy="98" r="42" fill="white" fill-opacity="0.7"/>
<circle cx="514" cy="125" r="74" fill="white" fill-opacity="0.7"/>
<circle cx="643" cy="88" r="74" fill="white" fill-opacity="0.7"/>
<circle cx="774" cy="74" r="74" fill="white" fill-opacity="0.7"/>
<circle cx="912" cy="75" r="36" fill="white" fill-opacity="0.7"/>
<circle cx="1020" cy="159" r="36" fill="white" fill-opacity="0.7"/>
<circle cx="1129" cy="154" r="36" fill="white" fill-opacity="0.7"/>
<circle cx="1203.5" cy="147.5" r="30.5" fill="white" fill-opacity="0.7"/>
<circle cx="1311.5" cy="155.5" r="30.5" fill="white" fill-opacity="0.7"/>
<circle cx="1412.5" cy="117.5" r="30.5" fill="white" fill-opacity="0.7"/>
<circle cx="1455.5" cy="74.5" r="30.5" fill="white" fill-opacity="0.7"/>
<circle cx="1558.5" cy="76.5" r="30.5" fill="white" fill-opacity="0.7"/>
<ellipse cx="124.5" cy="114.806" rx="124.5" ry="114.806" fill="white"/>
<ellipse cx="380" cy="159.658" rx="87" ry="94.6429" fill="white"/>
<ellipse cx="724" cy="134.558" rx="87" ry="94.2314" fill="white"/>
<ellipse cx="937.5" cy="170.357" rx="86.5" ry="94.6429" fill="white"/>
<ellipse cx="1511.5" cy="134.558" rx="86.5" ry="94.2314" fill="white"/>
<ellipse cx="248" cy="169.946" rx="72" ry="76.1258" fill="white"/>
<ellipse cx="281" cy="129.62" rx="49" ry="53.9053" fill="white"/>
<ellipse cx="491" cy="133.735" rx="49" ry="53.0823" fill="white"/>
<ellipse cx="585.5" cy="130.854" rx="66.5" ry="72.4224" fill="white"/>
<ellipse cx="852.5" cy="127.151" rx="66.5" ry="86.8245" fill="white"/>
<ellipse cx="1081" cy="192.989" rx="67" ry="72.0109" fill="white"/>
<ellipse cx="1167" cy="163.362" rx="46" ry="50.6134" fill="white"/>
<ellipse cx="1234.5" cy="163.362" rx="46.5" ry="50.6134" fill="white"/>
<ellipse cx="1281" cy="187.228" rx="47" ry="50.6134" fill="white"/>
<ellipse cx="1371.5" cy="163.362" rx="68.5" ry="74.4798" fill="white"/>
</svg>
